# xmcd
#
# Track frame offsets: 
#        150
#        16637
#        37688
#        53346
#        67548
#        81140
#        96746
#        117135
#        131995
#        154903
#        171127
#
# Disc length: 2473 seconds
#
# Revision: 2
# Processed by: cddbd v1.5.2PL0 Copyright (c) Steve Scherf et al.
# Submitted via: ExactAudioCopy v1.0b1
#
DISCID=7b09a70b
DTITLE=Gretchen Peters - Halcyon
DYEAR=2004
DGENRE=Country
TTITLE0=Tomorrow morning
TTITLE1=The aviator's song
TTITLE2=Blessing in disguise
TTITLE3=Child of mine
TTITLE4=A cool goodbye
TTITLE5=Imogene
TTITLE6=This used to be my town
TTITLE7=If heaven
TTITLE8=Germantown
TTITLE9=Drowning in you
TTITLE10=Museum
EXTD=
EXTT0=
EXTT1=
EXTT2=
EXTT3=
EXTT4=
EXTT5=
EXTT6=
EXTT7=
EXTT8=
EXTT9=
EXTT10=
PLAYORDER=
